<svg width="20" height="20" viewBox="0 0 20 20" fill="none" xmlns="http://www.w3.org/2000/svg">
<path fill-rule="evenodd" clip-rule="evenodd" d="M3.11288 1.75244C3.08454 1.61075 3.00799 1.48327 2.89625 1.39166C2.78451 1.30006 2.64449 1.25 2.5 1.25H0V2.5H1.9875L4.38713 14.4976C4.41546 14.6392 4.49201 14.7667 4.60375 14.8583C4.71549 14.9499 4.85551 15 5 15H16.25V13.75H5.5125L5.0125 11.25H16.25C16.3922 11.25 16.5301 11.2015 16.6411 11.1125C16.752 11.0236 16.8293 10.8994 16.8601 10.7606L18.2778 4.375H16.9982L15.7489 10H4.7625L3.11288 1.75244ZM7.5 17.5C7.5 18.1904 6.94036 18.75 6.25 18.75C5.55964 18.75 5 18.1904 5 17.5C5 16.8096 5.55964 16.25 6.25 16.25C6.94036 16.25 7.5 16.8096 7.5 17.5ZM16.25 17.5C16.25 18.1904 15.6904 18.75 15 18.75C14.3096 18.75 13.75 18.1904 13.75 17.5C13.75 16.8096 14.3096 16.25 15 16.25C15.6904 16.25 16.25 16.8096 16.25 17.5ZM10 1.25H11.25V3.75H13.75V5H11.25V7.5H10V5H7.5V3.75H10V1.25Z" fill="black"></path>
</svg>
